Coordinates
version=1
nRows=13
nColumns=63
inDegrees=yes

Units are S.I. units (second, meters, Newtons, ...)
If the header above contains a line with 'inDegrees', this indicates whether rotational values are in degrees (yes) or radians (no).

endheader
time	pelvis_tilt	pelvis_list	pelvis_rotation	pelvis_tx	pelvis_ty	pelvis_tz	hip_flexion_r	hip_adduction_r	hip_rotation_r	knee_angle_r	knee_angle_r_beta	ankle_angle_r	subtalar_angle_r	mtp_angle_r	hip_flexion_l	hip_adduction_l	hip_rotation_l	knee_angle_l	knee_angle_l_beta	ankle_angle_l	subtalar_angle_l	mtp_angle_l	L5_S1_Flex_Ext	L5_S1_Lat_Bending	L5_S1_axial_rotation	L4_L5_Flex_Ext	L4_L5_Lat_Bending	L4_L5_axial_rotation	L3_L4_Flex_Ext	L3_L4_Lat_Bending	L3_L4_axial_rotation	L2_L3_Flex_Ext	L2_L3_Lat_Bending	L2_L3_axial_rotation	L1_L2_Flex_Ext	L1_L2_Lat_Bending	L1_L2_axial_rotation	L1_T12_Flex_Ext	L1_T12_Lat_Bending	L1_T12_axial_rotation	Abs_r3	Abs_r2	Abs_r1	Abs_t1	Abs_t2	neck_flexion	neck_bending	neck_rotation	arm_flex_r	arm_add_r	arm_rot_r	elbow_flex_r	pro_sup_r	wrist_flex_r	wrist_dev_r	arm_flex_l	arm_add_l	arm_rot_l	elbow_flex_l	pro_sup_l	wrist_flex_l	wrist_dev_l
0.000000	1.957466	-3.202122	95.863623	0.216390	1.024745	0.417926	2.380496	2.261443	-6.375700	4.878687	0.085149	22.682318	-7.629589	0.000000	0.544849	-0.695320	12.127669	1.151742	0.020102	18.627670	-12.068347	0.000000	0.183009	0.385375	-1.512200	0.339866	0.512549	-1.606712	0.300665	0.937001	-1.606712	0.209161	0.937001	-1.323175	0.169942	0.785857	-1.228662	0.104571	0.596946	-1.134150	1.307213	4.359438	-8.410402	0.000000	0.000000	23.296206	1.957368	9.742994	22.065842	-8.525850	85.810265	50.392898	35.207534	-8.955573	29.094744	8.202642	-5.376745	49.339806	56.196744	11.611643	-60.597353	10.473599
0.016667	1.783774	-3.230293	95.565970	0.217258	1.024347	0.416208	2.197359	2.159542	-5.643587	4.624223	0.080708	22.856861	-7.770411	0.000000	0.631319	-0.552901	10.417233	1.455951	0.025411	19.987067	-9.730380	0.000000	0.197184	0.355697	-1.327797	0.366191	0.473076	-1.410785	0.323954	0.864841	-1.410785	0.225362	0.864841	-1.161823	0.183105	0.725336	-1.078835	0.112671	0.550974	-0.995848	1.408467	4.023711	-7.384810	0.000000	0.000000	23.880774	2.109962	9.296030	20.488258	-8.831773	82.245625	50.941653	36.328292	-9.327880	28.840055	7.713166	-5.602709	48.759140	57.027574	15.862854	-59.748599	11.730488
0.033333	1.629304	-3.260483	95.339034	0.217931	1.023987	0.414890	2.078776	2.050933	-5.143863	4.469146	0.078001	23.064715	-7.760917	0.000000	0.743379	-0.421219	8.943258	1.762333	0.030759	21.140713	-7.715525	0.000000	0.208717	0.330717	-1.185116	0.387609	0.439853	-1.259186	0.342902	0.804105	-1.259186	0.238543	0.804105	-1.036976	0.193815	0.674398	-0.962907	0.119261	0.512280	-0.888837	1.490848	3.741134	-6.591258	0.000000	0.000000	24.339875	2.180407	8.909318	19.251263	-9.022418	79.454810	51.307011	37.685293	-9.351563	28.645091	7.283663	-5.788028	48.199667	57.688799	19.667064	-59.077999	13.009798
0.050000	1.493696	-3.292450	95.178358	0.218422	1.023663	0.413936	2.018411	1.937781	-4.851276	4.402352	0.076836	23.300113	-7.623488	0.000000	0.877785	-0.300404	7.692695	2.068186	0.036097	22.104301	-6.002663	0.000000	0.217867	0.310180	-1.080679	0.404601	0.412539	-1.148221	0.357934	0.754170	-1.148221	0.249000	0.754170	-0.945594	0.202311	0.632518	-0.878052	0.124489	0.480468	-0.810509	1.556202	3.508813	-6.010412	0.000000	0.000000	24.686920	2.179043	8.580053	18.323287	-9.110990	77.364635	51.508967	39.237878	-9.072493	28.503041	6.909833	-5.935410	47.662873	58.196954	23.026668	-58.569393	14.272669
0.066667	1.376594	-3.325953	95.079488	0.218746	1.023372	0.413312	2.009932	1.822253	-4.740575	4.412737	0.077017	23.557288	-7.380509	0.000000	1.031291	-0.190588	6.652499	2.370811	0.041378	22.893524	-4.570677	0.000000	0.224892	0.293829	-1.011010	0.417646	0.390792	-1.074198	0.369474	0.714415	-1.074198	0.257029	0.714415	-0.884634	0.208834	0.599176	-0.821446	0.128503	0.455141	-0.758257	1.606378	3.323850	-5.622934	0.000000	0.000000	24.935320	2.116209	8.305432	17.672762	-9.110696	75.901914	51.567518	40.945385	-8.536541	28.407093	6.587380	-6.047559	47.150249	58.568571	25.944057	-58.206624	15.480242
0.083333	1.277638	-3.360751	95.037967	0.218916	1.023112	0.412983	2.047003	1.706513	-4.786507	4.489195	0.078351	23.830473	-7.054361	0.000000	1.200653	-0.091903	5.809623	2.667505	0.046557	23.524079	-3.398449	0.000000	0.230050	0.281409	-0.972632	0.427225	0.374274	-1.033422	0.377948	0.684217	-1.033422	0.262924	0.684217	-0.851053	0.213624	0.573849	-0.790264	0.131450	0.435902	-0.729474	1.643221	3.183351	-5.409489	0.000000	0.000000	25.098483	2.002247	8.082650	17.268121	-9.034741	74.993461	51.502660	42.767155	-7.789580	28.350432	6.312006	-6.127182	46.663282	58.820182	28.421624	-57.973530	16.593658
0.100000	1.196472	-3.396602	95.049340	0.218945	1.022880	0.412914	2.123291	1.592726	-4.963822	4.620623	0.080645	24.113900	-6.667428	0.000000	1.382624	-0.004481	5.151019	2.955568	0.051584	24.011658	-2.464862	0.000000	0.233600	0.272663	-0.962069	0.433818	0.362642	-1.022199	0.383781	0.662953	-1.022199	0.266981	0.662953	-0.841811	0.216921	0.556015	-0.781681	0.133479	0.422355	-0.721552	1.668578	3.084420	-5.350741	0.000000	0.000000	25.189819	1.847495	7.908903	17.077796	-8.896330	74.566090	51.334389	44.662528	-6.877481	28.326249	6.079413	-6.176983	46.203461	58.968322	30.461761	-57.853954	17.574055
0.116667	1.132736	-3.433265	95.109152	0.218848	1.022674	0.413071	2.232461	1.483059	-5.247266	4.795914	0.083704	24.401803	-6.242093	0.000000	1.573961	0.071547	4.663643	3.232298	0.056414	24.371955	-1.748798	0.000000	0.235800	0.267336	-0.975844	0.437904	0.355557	-1.036835	0.387396	0.650001	-1.036835	0.269496	0.650001	-0.853864	0.218964	0.545152	-0.792874	0.134736	0.414104	-0.731883	1.684296	3.024160	-5.427353	0.000000	0.000000	25.222739	1.662294	7.781387	17.070219	-8.708670	74.546614	51.082702	46.590842	-5.846115	28.327729	5.885303	-6.199670	45.772275	59.029522	32.066862	-57.831736	18.382574
0.133333	1.086073	-3.470498	95.212946	0.218637	1.022491	0.413419	2.368179	1.379676	-5.611590	5.003966	0.087336	24.688415	-5.800737	0.000000	1.771417	0.136049	4.334446	3.494994	0.060999	24.620665	-1.229140	0.000000	0.236910	0.265172	-1.010481	0.439965	0.352679	-1.073636	0.389219	0.644739	-1.073636	0.270764	0.644739	-0.884171	0.219994	0.540738	-0.821016	0.135370	0.410751	-0.757860	1.692221	2.999677	-5.619990	0.000000	0.000000	25.210652	1.456982	7.697298	17.213821	-8.484966	74.861848	50.767594	48.511439	-4.741355	28.348060	5.725380	-6.197947	45.371211	59.020315	33.239318	-57.890717	18.980356
0.150000	1.056124	-3.508059	95.356268	0.218327	1.022329	0.413923	2.524110	1.284742	-6.031540	5.233672	0.091345	24.967968	-5.365745	0.000000	1.971748	0.188894	4.150382	3.740955	0.065292	24.773481	-0.884769	0.000000	0.237187	0.265914	-1.062502	0.440479	0.353666	-1.128908	0.389674	0.646544	-1.128908	0.271081	0.646544	-0.929689	0.220252	0.542252	-0.863283	0.135528	0.411901	-0.796876	1.694201	3.008073	-5.909315	0.000000	0.000000	25.166967	1.241901	7.653831	17.477035	-8.238424	75.438605	50.409062	50.383656	-3.609072	28.380431	5.595345	-6.174521	45.001758	58.957235	33.981523	-58.014739	19.328539
0.166667	1.042532	-3.545708	95.534662	0.217931	1.022186	0.414548	2.693922	1.200423	-6.481866	5.473929	0.095538	25.234694	-4.959498	0.000000	2.171709	0.229950	4.098406	3.967480	0.069246	24.846098	-0.694569	0.000000	0.236890	0.269307	-1.128431	0.439928	0.358178	-1.198958	0.389187	0.654793	-1.198958	0.270742	0.654793	-0.987377	0.219976	0.549171	-0.916850	0.135359	0.417157	-0.846323	1.692082	3.046455	-6.275993	0.000000	0.000000	25.105096	1.027390	7.648183	17.828293	-7.982250	76.203700	50.027103	52.166835	-2.495138	28.418028	5.490901	-6.132097	44.665406	58.856813	34.295869	-58.187640	19.388266
0.183333	1.040309	-3.594670	95.758664	0.217468	1.022062	0.415219	2.875729	1.129503	-6.826374	5.696448	0.099422	25.455222	-4.774418	0.000000	2.372318	0.266579	4.207967	4.163082	0.072659	24.804907	-0.686220	0.000000	0.237495	0.273731	-1.197284	0.441051	0.364063	-1.272114	0.390180	0.665550	-1.272114	0.271433	0.665550	-1.047624	0.220537	0.558193	-0.972793	0.135704	0.424010	-0.897963	1.696400	3.096503	-6.658935	0.000000	0.000000	25.110960	0.877077	7.669398	18.041019	-7.757714	76.610648	49.683350	53.720761	-1.641205	28.457924	5.406628	-6.068298	44.390819	58.752478	34.035688	-58.154370	18.865839
0.200000	1.061046	-3.634107	95.987877	0.216946	1.021951	0.415930	3.050606	1.081026	-7.124632	5.902212	0.103013	25.653252	-4.659442	0.000000	2.551879	0.284027	4.405641	4.324095	0.075470	24.760422	-0.763344	0.000000	0.237612	0.282431	-1.275183	0.441269	0.375633	-1.354882	0.390372	0.686702	-1.354882	0.271566	0.686702	-1.115785	0.220646	0.575933	-1.036086	0.135771	0.437485	-0.956387	1.697237	3.194914	-7.092185	0.000000	0.000000	25.106896	0.737653	7.762011	18.327500	-7.559844	77.141390	49.383966	55.150556	-0.948369	28.454172	5.319116	-5.994090	44.118571	58.684812	33.264977	-58.264956	17.755315
